<?xml version="1.0" ?><svg style="enable-background:new 0 0 44 44;" version="1.1" viewBox="0 0 44 44" xml:space="preserve" xmlns="http://www.w3.org/2000/svg" xmlns:xlink="http://www.w3.org/1999/xlink"><g id="ghost"/><g id="bat"/><g id="monster"/><g id="jason"/><g id="grave"/><g id="skull"/><g id="cauldron"/><g id="cleaver"/><g id="candle"/><g id="cat"/><g id="owl"/><g id="pumkin"/><g id="eye"/><g id="vampire"/><g id="finger"/><g id="leaf"/><g id="coffin"/><g id="broom"/><g id="moon"/><g id="poison"/><g id="sweet"/><g id="zombie"/><g id="hat"><g><path d="M33.624,29.278L28.72,15.709c-0.479-1.257-0.721-2.575-0.721-3.918l0-8.287c0-0.936-0.364-1.815-1.026-2.478    S25.432,0,24.496,0c-1.291,0-2.473,0.706-3.085,1.843L16.02,11.854c-0.624,1.159-1.152,2.381-1.574,3.646l-4.385,13.856    C4.295,30.812,1,33.214,1,36c0,5.196,10.82,8,21,8s21-2.804,21-8C43,33.163,39.585,30.725,33.624,29.278z M18,30.8    c-2.335-0.241-4.404-0.69-5.893-1.281l0.546-1.724c1.529,0.465,3.342,0.804,5.347,1.001V30.8z M10.091,35.888l1.412-4.462    c1.73,0.667,4.019,1.149,6.624,1.393C18.486,34.073,19.631,35,21,35h2c1.368,0,2.513-0.926,2.872-2.181    c2.499-0.233,4.724-0.687,6.431-1.313l1.572,4.35c0.016,0.043,0.041,0.096,0.068,0.146C33.222,36.769,28.925,38,22,38    c-6.946,0-11.248-1.239-11.95-2.005C10.066,35.96,10.08,35.924,10.091,35.888z M20,32v-4c0-0.552,0.449-1,1-1h2    c0.551,0,1,0.448,1,1v4c0,0.552-0.449,1-1,1h-2C20.449,33,20,32.552,20,32z M31,27.901l0.623,1.725    c-1.466,0.538-3.434,0.95-5.623,1.175v-2.003C27.849,28.616,29.544,28.312,31,27.901z M16.348,16.118    c0.381-1.143,0.863-2.258,1.433-3.316l5.391-10.011c0.454-0.842,1.713-1.026,2.388-0.351C25.843,2.725,26,3.102,26,3.504l0,8.287    c0,1.587,0.286,3.145,0.846,4.613l3.474,9.612c-1.325,0.364-2.872,0.634-4.566,0.797C25.292,25.748,24.233,25,23,25h-2    c-1.236,0-2.299,0.752-2.758,1.822c-1.865-0.182-3.587-0.5-4.99-0.921L16.348,16.118z M22,42c-11.197,0-19-3.162-19-6    c0-1.568,2.434-3.215,6.343-4.377l-1.128,3.564C8.07,35.462,8,35.729,8,36c0,3.888,12.567,4,14,4s14-0.112,14-4    c0-0.314-0.095-0.628-0.284-0.934l-1.266-3.503C38.48,32.728,41,34.405,41,36C41,38.838,33.197,42,22,42z"/></g></g><g id="candy"/></svg>